<?xml version="1.0" encoding="UTF-8"?>
<svg id="Layer_1" data-name="Layer 1" xmlns="http://www.w3.org/2000/svg" version="1.1" viewBox="0 0 200 200">
  <defs>
    <style>
      .cls-1 {
        fill: #ffd60a;
        stroke-width: 0px;
      }
    </style>
  </defs>
  <path class="cls-1" d="M7.48,148.76V40.39h31.24v9.59c1.55-2.13,3.32-3.92,5.32-5.36,2-1.44,4.08-2.58,6.27-3.43s4.37-1.46,6.56-1.84c2.19-.37,4.23-.56,6.15-.56,5.76,0,10.92,1.52,15.51,4.56,4.58,3.04,8.2,7.71,10.87,14.02,2.67,6.32,3.99,14.35,3.99,24.1,0,10.5-1.58,18.9-4.75,25.22-3.17,6.32-7.32,10.88-12.47,13.7-5.14,2.83-10.64,4.24-16.5,4.24-1.7,0-3.51-.21-5.4-.64-1.89-.42-3.78-1.1-5.67-2.04-1.89-.93-3.69-2.13-5.39-3.6-1.71-1.46-3.25-3.26-4.64-5.39v35.8H7.48ZM51.51,102.41c3.47,0,6.52-1.64,9.15-4.92,2.64-3.28,3.96-8.62,3.96-16.03,0-6.71-1.32-11.85-3.96-15.42-2.63-3.57-5.68-5.36-9.15-5.36-4.53,0-7.82,2.07-9.87,6.2-2.06,4.13-3.08,8.99-3.08,14.58,0,3.36.45,6.65,1.36,9.87.9,3.23,2.3,5.87,4.2,7.95,1.89,2.08,4.36,3.12,7.39,3.12Z"/>
  <path class="cls-1" d="M157.81,148.76v-35.8c-1.33,2.13-2.87,3.93-4.6,5.39-1.73,1.47-3.54,2.67-5.43,3.6-1.89.94-3.79,1.61-5.68,2.04-1.89.43-3.69.64-5.39.64-5.86,0-11.36-1.41-16.51-4.24-5.14-2.82-9.29-7.39-12.47-13.7-3.17-6.32-4.75-14.72-4.75-25.22,0-9.75,1.33-17.78,4-24.1,2.66-6.31,6.28-10.99,10.87-14.02,4.58-3.04,9.75-4.56,15.51-4.56,1.92,0,3.97.19,6.15.56,2.19.38,4.37.99,6.56,1.84,2.18.85,4.27,2,6.27,3.43,2,1.44,3.77,3.23,5.31,5.36v-9.59h31.25v108.37h-31.09ZM144.86,102.41c3.04,0,5.52-1.04,7.43-3.12,1.92-2.07,3.32-4.72,4.2-7.95s1.32-6.52,1.32-9.87c0-5.59-1.01-10.45-3.04-14.58-2.03-4.13-5.33-6.2-9.91-6.2-3.41,0-6.45,1.79-9.11,5.36-2.66,3.57-3.99,8.71-3.99,15.42,0,7.41,1.33,12.75,3.99,16.03,2.67,3.28,5.7,4.92,9.11,4.92Z"/>
</svg>